<svg xmlns="http://www.w3.org/2000/svg" width="142" height="39" viewBox="0 0 142 39">
    <defs>
        <radialGradient id="a" cx="64.036%" cy="87.242%" r="79.619%" fx="64.036%" fy="87.242%" gradientTransform="matrix(.63538 0 0 1 .233 0)">
            <stop offset="0%" stop-color="#6FB9F7"/>
            <stop offset="100%" stop-color="#135CC8"/>
        </radialGradient>
        <radialGradient id="b" cx="80.926%" cy="37.488%" r="83.212%" fx="80.926%" fy="37.488%" gradientTransform="matrix(1 0 0 .46517 0 .2)">
            <stop offset="17%" stop-color="#135CC8"/>
            <stop offset="100%" stop-color="#6FB9F7"/>
        </radialGradient>
    </defs>
    <g fill="none" fill-rule="evenodd">
        <g fill="#135CC8">
            <path d="M130.448 22.653c.845-1.29 2.343-1.936 4.495-1.936v2.745a3.285 3.285 0 0 0-.683-.07 3.641 3.641 0 0 0-2.697.977 3.863 3.863 0 0 0-.962 2.816v5.966h-2.985v-12.32h2.805l.027 1.822zm-11.264.387a3.645 3.645 0 0 0-2.392.818 3.437 3.437 0 0 0-1.186 2.174h7.138a3.357 3.357 0 0 0-1.151-2.165 3.562 3.562 0 0 0-2.41-.827zm6.364 4.048v.88h-9.888a3.308 3.308 0 0 0 1.348 2.147 4.5 4.5 0 0 0 2.697.801 4.637 4.637 0 0 0 3.416-1.338l1.582 1.76a5.25 5.25 0 0 1-2.148 1.496 7.843 7.843 0 0 1-2.922.51 7.915 7.915 0 0 1-3.65-.809 5.839 5.839 0 0 1-2.436-2.244 6.2 6.2 0 0 1-.899-3.256 6.3 6.3 0 0 1 .836-3.23 5.865 5.865 0 0 1 2.32-2.243 6.895 6.895 0 0 1 3.344-.81 6.722 6.722 0 0 1 3.29.792 5.702 5.702 0 0 1 2.265 2.235 6.671 6.671 0 0 1 .845 3.291v.018zm-20.613 3.775a3.637 3.637 0 0 0 2.697-1.056 3.816 3.816 0 0 0 1.042-2.79 3.807 3.807 0 0 0-1.042-2.78 3.637 3.637 0 0 0-2.697-1.056 3.813 3.813 0 0 0-1.906.466 3.503 3.503 0 0 0-1.349 1.347 4.386 4.386 0 0 0 0 4.048 3.388 3.388 0 0 0 1.349 1.346c.582.315 1.24.473 1.906.458v.017zm.332-10.129a6.805 6.805 0 0 1 3.282.784 5.66 5.66 0 0 1 2.274 2.208 6.385 6.385 0 0 1 .827 3.292 6.454 6.454 0 0 1-.827 3.308 5.633 5.633 0 0 1-2.274 2.218 6.805 6.805 0 0 1-3.282.783 5.16 5.16 0 0 1-4.036-1.654v5.957h-2.94V20.91h2.805v1.61a4.57 4.57 0 0 1 1.798-1.31 6.28 6.28 0 0 1 2.373-.493v.017zM89.481 30.846a3.637 3.637 0 0 0 2.697-1.056 3.79 3.79 0 0 0 1.06-2.79 3.782 3.782 0 0 0-1.06-2.78 3.637 3.637 0 0 0-2.697-1.057 3.637 3.637 0 0 0-2.697 1.056A3.772 3.772 0 0 0 85.741 27a3.781 3.781 0 0 0 1.043 2.79 3.637 3.637 0 0 0 2.697 1.056zm0 2.464a7.318 7.318 0 0 1-3.443-.81 5.942 5.942 0 0 1-2.391-2.244 6.2 6.2 0 0 1-.9-3.256 6.14 6.14 0 0 1 .9-3.238 5.916 5.916 0 0 1 2.39-2.236 7.761 7.761 0 0 1 6.905 0 5.916 5.916 0 0 1 2.391 2.236 6.14 6.14 0 0 1 .9 3.238 6.2 6.2 0 0 1-.9 3.256 5.942 5.942 0 0 1-2.39 2.244 7.318 7.318 0 0 1-3.462.81zM75.475 20.717a5.354 5.354 0 0 1 3.82 1.364 5.273 5.273 0 0 1 1.43 4.021v7.04h-2.976v-6.67a3.392 3.392 0 0 0-.782-2.429 2.903 2.903 0 0 0-2.211-.818 3.467 3.467 0 0 0-2.572.959 3.732 3.732 0 0 0-.899 2.746v6.221h-3.002v-17.08h2.949v6.212a4.882 4.882 0 0 1 1.797-1.161 6.837 6.837 0 0 1 2.446-.405zM59.608 33.38a12.92 12.92 0 0 1-3.695-.528 7.92 7.92 0 0 1-2.814-1.408l1.06-2.323c.75.562 1.592.993 2.49 1.276a9.11 9.11 0 0 0 2.959.493c.95.06 1.899-.138 2.741-.572.556-.314.899-.895.9-1.523a1.464 1.464 0 0 0-.504-1.135 3.618 3.618 0 0 0-1.286-.704 29.641 29.641 0 0 0-2.121-.572 25.312 25.312 0 0 1-3.057-.88 5.091 5.091 0 0 1-2.004-1.364 3.645 3.645 0 0 1-.836-2.526 4.239 4.239 0 0 1 .746-2.428 5.052 5.052 0 0 1 2.238-1.76 9.245 9.245 0 0 1 3.668-.643c1 0 1.997.122 2.967.361.899.221 1.753.59 2.526 1.091l-.971 2.323a9.395 9.395 0 0 0-2.266-.941 8.418 8.418 0 0 0-2.283-.326 4.885 4.885 0 0 0-2.697.599 1.83 1.83 0 0 0-.899 1.592c-.016.431.17.846.504 1.127.377.31.814.544 1.285.686.522.167 1.223.361 2.122.581a22.11 22.11 0 0 1 3.011.88c.775.293 1.468.76 2.023 1.364.587.699.885 1.587.836 2.49a4.17 4.17 0 0 1-.746 2.412 5.035 5.035 0 0 1-2.248 1.76 9.522 9.522 0 0 1-3.65.598zM139.636 18.974h.278c.315 0 .468-.105.468-.334a.322.322 0 0 0-.1-.238.493.493 0 0 0-.34-.088h-.306v.66zm-.432 1.021v-2.024h.81c.207-.004.412.048.593.15.17.11.263.303.242.501a.59.59 0 0 1-.108.335.583.583 0 0 1-.287.211l.494.827h-.494l-.378-.695h-.44v.695h-.432zm.764.607c.215 0 .428-.04.63-.114a1.45 1.45 0 0 0 .845-.827c.089-.206.131-.428.125-.651a1.539 1.539 0 0 0-.97-1.488 1.788 1.788 0 0 0-1.259 0 1.536 1.536 0 0 0-.827.845 1.727 1.727 0 0 0 0 1.294 1.493 1.493 0 0 0 .827.827c.201.075.414.113.63.114zm0 .361a2.01 2.01 0 0 1-1.42-.546c-.386-.37-.6-.878-.593-1.407a1.915 1.915 0 0 1 .593-1.417c.187-.168.403-.302.638-.396a2.143 2.143 0 0 1 1.573 0c.238.094.457.228.648.396.388.372.603.885.593 1.417a1.916 1.916 0 0 1-.593 1.408 2.047 2.047 0 0 1-1.439.545z"/>
        </g>
        <path fill="url(#a)" d="M40.355 11.259a2.602 2.602 0 0 0-2.005-.27 2.629 2.629 0 0 0-1.6 1.25L25.48 31.894H2.844c-1.47 0-2.66 1.203-2.66 2.687 0 1.484 1.19 2.687 2.66 2.687H26.81c.134.009.268.009.402 0h.158a2.624 2.624 0 0 0 1.951-1.308l12.005-21.033c.362-.614.463-1.35.28-2.04a2.647 2.647 0 0 0-1.251-1.627z" transform="translate(1 1)"/>
        <path fill="url(#b)" d="M16.861 12.072l-6.125-10.72a2.645 2.645 0 0 0-3.631-.99 2.7 2.7 0 0 0-.98 3.668l5.451 9.526L.36 33.166a2.69 2.69 0 0 0 .989 3.65 2.635 2.635 0 0 0 3.613-.999L16.95 14.855c.494-.87.46-1.947-.088-2.783z" transform="translate(1 1)"/>
    </g>
</svg>
